<mxfile host="app.diagrams.net" modified="2023-10-30T06:05:40.487Z" agent="Mozilla/5.0 (Windows NT 10.0; Win64; x64) AppleWebKit/537.36 (KHTML, like Gecko) Chrome/118.0.0.0 Whale/3.23.214.10 Safari/537.36" version="22.0.8" etag="0gnQfzBFIF7JSDIur1gs" type="github">
  <diagram name="페이지-1" id="GZHKBxDs756p7_WZ04ZU">
    <mxGraphModel>
      <root>
        <mxCell id="0" />
        <mxCell id="1" parent="0" />
      </root>
    </mxGraphModel>
  </diagram>
</mxfile>
